<?xml version="1.0" encoding="utf-8"?>
<svg xmlns="http://www.w3.org/2000/svg" xmlns:xlink="http://www.w3.org/1999/xlink">
     <symbol viewBox="0 0 24 24" id="ic_zoom_in">
        <path d="M15.5 14h-.79l-.28-.27A6.47 6.47 0 0 0 16 9.5 6.5 6.5 0 1 0 9.5 16c1.61 0 3.09-.59 4.23-1.57l.27.28v.79l5 4.99L20.49 19l-4.99-5zm-6 0C7.01 14 5 11.99 5 9.5S7.01 5 9.5 5 14 7.01 14 9.5 11.99 14 9.5 14zm2.5-4h-2v2H9v-2H7V9h2V7h1v2h2v1z" />
    </symbol>
    <symbol viewBox="0 0 24 24" id="ic_zoom_out">
        <path d="M15.5 14h-.79l-.28-.27A6.47 6.47 0 0 0 16 9.5 6.5 6.5 0 1 0 9.5 16c1.61 0 3.09-.59 4.23-1.57l.27.28v.79l5 4.99L20.49 19l-4.99-5zm-6 0C7.01 14 5 11.99 5 9.5S7.01 5 9.5 5 14 7.01 14 9.5 11.99 14 9.5 14zM7 9h5v1H7z" />
    </symbol>
    <symbol viewBox="0 0 24 24" id="ic_visibility">
        <path d="M12 4.5C7 4.5 2.73 7.61 1 12c1.73 4.39 6 7.5 11 7.5s9.27-3.11 11-7.5c-1.73-4.39-6-7.5-11-7.5zM12 17c-2.76 0-5-2.24-5-5s2.24-5 5-5 5 2.24 5 5-2.24 5-5 5zm0-8c-1.66 0-3 1.34-3 3s1.34 3 3 3 3-1.34 3-3-1.34-3-3-3z" />
    </symbol>
    <symbol viewBox="0 0 24 24" id="ic_lightbulb_outline">
        <path d="M9 21c0 .55.45 1 1 1h4c.55 0 1-.45 1-1v-1H9v1zm3-19C8.14 2 5 5.14 5 9c0 2.38 1.19 4.47 3 5.74V17c0 .55.45 1 1 1h6c.55 0 1-.45 1-1v-2.26c1.81-1.27 3-3.36 3-5.74 0-3.86-3.14-7-7-7zm2.85 11.1l-.85.6V16h-4v-2.3l-.85-.6A4.997 4.997 0 0 1 7 9c0-2.76 2.24-5 5-5s5 2.24 5 5c0 1.63-.8 3.16-2.15 4.1z" />
    </symbol>
    <symbol viewBox="0 0 24 24" id="ic_label">
        <path d="M17.63 5.84C17.27 5.33 16.67 5 16 5L5 5.01C3.9 5.01 3 5.9 3 7v10c0 1.1.9 1.99 2 1.99L16 19c.67 0 1.27-.33 1.63-.84L22 12l-4.37-6.16z" />
    </symbol>
    <symbol viewBox="0 0 24 24" id="ic_label_outline">
        <path d="M17.63 5.84C17.27 5.33 16.67 5 16 5L5 5.01C3.9 5.01 3 5.9 3 7v10c0 1.1.9 1.99 2 1.99L16 19c.67 0 1.27-.33 1.63-.84L22 12l-4.37-6.16zM16 17H5V7h11l3.55 5L16 17z" />
    </symbol>
    <symbol viewBox="0 0 24 24" id="ic_bookmark">
        <path d="M17 3H7c-1.1 0-1.99.9-1.99 2L5 21l7-3 7 3V5c0-1.1-.9-2-2-2z" />
    </symbol>
    <symbol viewBox="0 0 24 24" id="ic_bookmark_border">
        <path d="M17 3H7c-1.1 0-1.99.9-1.99 2L5 21l7-3 7 3V5c0-1.1-.9-2-2-2zm0 15l-5-2.18L7 18V5h10v13z" />
    </symbol>
    <symbol viewBox="0 0 24 24" id="ic_info">
        <path d="M12 2C6.48 2 2 6.48 2 12s4.48 10 10 10 10-4.48 10-10S17.52 2 12 2zm1 15h-2v-6h2v6zm0-8h-2V7h2v2z" />
    </symbol>
    <symbol viewBox="0 0 24 24" id="ic_info_outline">
        <path d="M11 17h2v-6h-2v6zm1-15C6.48 2 2 6.48 2 12s4.48 10 10 10 10-4.48 10-10S17.52 2 12 2zm0 18c-4.41 0-8-3.59-8-8s3.59-8 8-8 8 3.59 8 8-3.59 8-8 8zM11 9h2V7h-2v2z" />
    </symbol>
    <symbol viewBox="0 0 24 24" id="ic_home">
        <path d="M10 20v-6h4v6h5v-8h3L12 3 2 12h3v8z" />
    </symbol>
    <symbol viewBox="0 0 24 24" id="ic_help">
        <path d="M12 2C6.48 2 2 6.48 2 12s4.48 10 10 10 10-4.48 10-10S17.52 2 12 2zm1 17h-2v-2h2v2zm2.07-7.75l-.9.92C13.45 12.9 13 13.5 13 15h-2v-.5c0-1.1.45-2.1 1.17-2.83l1.24-1.26c.37-.36.59-.86.59-1.41 0-1.1-.9-2-2-2s-2 .9-2 2H8c0-2.21 1.79-4 4-4s4 1.79 4 4c0 .88-.36 1.68-.93 2.25z" />
    </symbol>
    <symbol viewBox="0 0 24 24" id="ic_help_outline">
        <path d="M11 18h2v-2h-2v2zm1-16C6.48 2 2 6.48 2 12s4.48 10 10 10 10-4.48 10-10S17.52 2 12 2zm0 18c-4.41 0-8-3.59-8-8s3.59-8 8-8 8 3.59 8 8-3.59 8-8 8zm0-14a4 4 0 0 0-4 4h2c0-1.1.9-2 2-2s2 .9 2 2c0 2-3 1.75-3 5h2c0-2.25 3-2.5 3-5a4 4 0 0 0-4-4z" />
    </symbol>
    <symbol viewBox="0 0 24 24" id="ic_done">
        <path d="M9 16.2L4.8 12l-1.4 1.4L9 19 21 7l-1.4-1.4L9 16.2z" />
    </symbol>
    <symbol viewBox="0 0 24 24" id="ic_done_all">
        <path d="M18 7l-1.41-1.41-6.34 6.34 1.41 1.41L18 7zm4.24-1.41L11.66 16.17 7.48 12l-1.41 1.41L11.66 19l12-12-1.42-1.41zM.41 13.41L6 19l1.41-1.41L1.83 12 .41 13.41z" />
    </symbol>
    <symbol viewBox="0 0 24 24" id="ic_description">
        <path d="M14 2H6c-1.1 0-1.99.9-1.99 2L4 20c0 1.1.89 2 1.99 2H18c1.1 0 2-.9 2-2V8l-6-6zm2 16H8v-2h8v2zm0-4H8v-2h8v2zm-3-5V3.5L18.5 9H13z" />
    </symbol>
    <symbol viewBox="0 0 24 24" id="ic_save">
        <path d="M17 3H5a2 2 0 0 0-2 2v14a2 2 0 0 0 2 2h14c1.1 0 2-.9 2-2V7l-4-4zm-5 16c-1.66 0-3-1.34-3-3s1.34-3 3-3 3 1.34 3 3-1.34 3-3 3zm3-10H5V5h10v4z" />
    </symbol>
    <symbol viewBox="0 0 24 24" id="ic_mode_edit">
        <path d="M3 17.25V21h3.75L17.81 9.94l-3.75-3.75L3 17.25zM20.71 7.04a.996.996 0 0 0 0-1.41l-2.34-2.34a.996.996 0 0 0-1.41 0l-1.83 1.83 3.75 3.75 1.83-1.83z" />
    </symbol>
    <symbol viewBox="0 0 24 24" id="ic_keyboard">
        <path d="M20 5H4c-1.1 0-1.99.9-1.99 2L2 17c0 1.1.9 2 2 2h16c1.1 0 2-.9 2-2V7c0-1.1-.9-2-2-2zm-9 3h2v2h-2V8zm0 3h2v2h-2v-2zM8 8h2v2H8V8zm0 3h2v2H8v-2zm-1 2H5v-2h2v2zm0-3H5V8h2v2zm9 7H8v-2h8v2zm0-4h-2v-2h2v2zm0-3h-2V8h2v2zm3 3h-2v-2h2v2zm0-3h-2V8h2v2z" />
    </symbol>
    <symbol viewBox="0 0 24 24" id="ic_rate_review">
        <path d="M20 2H4c-1.1 0-1.99.9-1.99 2L2 22l4-4h14c1.1 0 2-.9 2-2V4c0-1.1-.9-2-2-2zM6 14v-2.47l6.88-6.88c.2-.2.51-.2.71 0l1.77 1.77c.2.2.2.51 0 .71L8.47 14H6zm12 0h-7.5l2-2H18v2z" />
    </symbol>
    <symbol viewBox="0 0 24 24" id="ic_color_lens">
        <path d="M12 3a9 9 0 0 0 0 18c.83 0 1.5-.67 1.5-1.5 0-.39-.15-.74-.39-1.01-.23-.26-.38-.61-.38-.99 0-.83.67-1.5 1.5-1.5H16c2.76 0 5-2.24 5-5 0-4.42-4.03-8-9-8zm-5.5 9c-.83 0-1.5-.67-1.5-1.5S5.67 9 6.5 9 8 9.67 8 10.5 7.33 12 6.5 12zm3-4C8.67 8 8 7.33 8 6.5S8.67 5 9.5 5s1.5.67 1.5 1.5S10.33 8 9.5 8zm5 0c-.83 0-1.5-.67-1.5-1.5S13.67 5 14.5 5s1.5.67 1.5 1.5S15.33 8 14.5 8zm3 4c-.83 0-1.5-.67-1.5-1.5S16.67 9 17.5 9s1.5.67 1.5 1.5-.67 1.5-1.5 1.5z" />
    </symbol>
    <symbol viewBox="0 0 24 24" id="ic_wb_incandescent">
        <path d="M3.55 18.54l1.41 1.41 1.79-1.8-1.41-1.41-1.79 1.8zM11 22.45h2V19.5h-2v2.95zM4 10.5H1v2h3v-2zm11-4.19V1.5H9v4.81C7.21 7.35 6 9.28 6 11.5c0 3.31 2.69 6 6 6s6-2.69 6-6c0-2.22-1.21-4.15-3-5.19zm5 4.19v2h3v-2h-3zm-2.76 7.66l1.79 1.8 1.41-1.41-1.8-1.79-1.4 1.4z" />
    </symbol>
    <symbol viewBox="0 0 24 24" id="ic_apps">
        <path d="M4 8h4V4H4v4zm6 12h4v-4h-4v4zm-6 0h4v-4H4v4zm0-6h4v-4H4v4zm6 0h4v-4h-4v4zm6-10v4h4V4h-4zm-6 4h4V4h-4v4zm6 6h4v-4h-4v4zm0 6h4v-4h-4v4z" />
    </symbol>
    <symbol viewBox="0 0 24 24" id="ic_expand_more">
        <path d="M16.59 8.59L12 13.17 7.41 8.59 6 10l6 6 6-6z" />
    </symbol>
    <symbol viewBox="0 0 24 24" id="ic_toc">
        <path d="M3 9h14V7H3v2zm0 4h14v-2H3v2zm0 4h14v-2H3v2zm16 0h2v-2h-2v2zm0-10v2h2V7h-2zm0 6h2v-2h-2v2z" />
    </symbol>
    <symbol viewBox="0 0 24 24" id="ic_more">
        <path d="M22 3H7c-.69 0-1.23.35-1.59.88L0 12l5.41 8.11c.36.53.97.89 1.66.89H22c1.1 0 2-.9 2-2V5c0-1.1-.9-2-2-2zM9 13.5c-.83 0-1.5-.67-1.5-1.5s.67-1.5 1.5-1.5 1.5.67 1.5 1.5-.67 1.5-1.5 1.5zm5 0c-.83 0-1.5-.67-1.5-1.5s.67-1.5 1.5-1.5 1.5.67 1.5 1.5-.67 1.5-1.5 1.5zm5 0c-.83 0-1.5-.67-1.5-1.5s.67-1.5 1.5-1.5 1.5.67 1.5 1.5-.67 1.5-1.5 1.5z" />
    </symbol>
    <symbol viewBox="0 0 24 24" id="ic_menu">
        <path d="M3 18h18v-2H3v2zm0-5h18v-2H3v2zm0-7v2h18V6H3z" />
    </symbol>
     <symbol viewBox="0 0 24 24" id="ic_down">
        <path d="M7.41 7.84L12 12.42l4.59-4.58L18 9.25l-6 6-6-6z" />
    </symbol>
     <symbol viewBox="0 0 24 24" id="ic_add">
        <path d="M19 13h-6v6h-2v-6H5v-2h6V5h2v6h6v2z" />
    </symbol>
    <symbol viewBox="0 0 24 24" id="ic_file_download">
        <path d="M19 9h-4V3H9v6H5l7 7 7-7zM5 18v2h14v-2H5z"/>
    </symbol>
    <symbol viewBox="0 0 24 24" id="ic_move_to_inbox">
        <path d="M19 3H4.99c-1.11 0-1.98.9-1.98 2L3 19c0 1.1.88 2 1.99 2H19c1.1 0 2-.9 2-2V5c0-1.1-.9-2-2-2zm0 12h-4c0 1.66-1.35 3-3 3s-3-1.34-3-3H4.99V5H19v10zm-3-5h-2V7h-4v3H8l4 4 4-4z"/>
    </symbol> 
	<symbol viewBox="0 0 24 24" id="ic_settings">
		<path d="M19.43 12.98c.04-.32.07-.64.07-.98s-.03-.66-.07-.98l2.11-1.65c.19-.15.24-.42.12-.64l-2-3.46c-.12-.22-.39-.3-.61-.22l-2.49 1c-.52-.4-1.08-.73-1.69-.98l-.38-2.65A.488.488 0 0 0 14 2h-4c-.25 0-.46.18-.49.42l-.38 2.65c-.61.25-1.17.59-1.69.98l-2.49-1c-.23-.09-.49 0-.61.22l-2 3.46c-.13.22-.07.49.12.64l2.11 1.65c-.04.32-.07.65-.07.98s.03.66.07.98l-2.11 1.65c-.19.15-.24.42-.12.64l2 3.46c.12.22.39.3.61.22l2.49-1c.52.4 1.08.73 1.69.98l.38 2.65c.03.24.24.42.49.42h4c.25 0 .46-.18.49-.42l.38-2.65c.61-.25 1.17-.59 1.69-.98l2.49 1c.23.09.49 0 .61-.22l2-3.46c.12-.22.07-.49-.12-.64l-2.11-1.65zM12 15.5c-1.93 0-3.5-1.57-3.5-3.5s1.57-3.5 3.5-3.5 3.5 1.57 3.5 3.5-1.57 3.5-3.5 3.5z"></path>
	</symbol>
	<symbol viewBox="0 0 24 24" id="ic_chrome_reader_mode" >
		<path d="M13 12h7v1.5h-7zm0-2.5h7V11h-7zm0 5h7V16h-7zM21 4H3c-1.1 0-2 .9-2 2v13c0 1.1.9 2 2 2h18c1.1 0 2-.9 2-2V6c0-1.1-.9-2-2-2zm0 15h-9V6h9v13z"></path>
	</symbol>
	<symbol viewBox="0 0 24 24" id="ic_search" >
		<path d="M15.5 14h-.79l-.28-.27A6.47 6.47 0 0 0 16 9.5 6.5 6.5 0 1 0 9.5 16c1.61 0 3.09-.59 4.23-1.57l.27.28v.79l5 4.99L20.49 19l-4.99-5zm-6 0C7.01 14 5 11.99 5 9.5S7.01 5 9.5 5 14 7.01 14 9.5 11.99 14 9.5 14z"/>
	</symbol>
	<symbol viewBox="0 0 24 24" id="ic_translate" >
		<path d="M12.87 15.07l-2.54-2.51.03-.03A17.52 17.52 0 0 0 14.07 6H17V4h-7V2H8v2H1v1.99h11.17C11.5 7.92 10.44 9.75 9 11.35 8.07 10.32 7.3 9.19 6.69 8h-2c.73 1.63 1.73 3.17 2.98 4.56l-5.09 5.02L4 19l5-5 3.11 3.11.76-2.04zM18.5 10h-2L12 22h2l1.12-3h4.75L21 22h2l-4.5-12zm-2.62 7l1.62-4.33L19.12 17h-3.24z"/>
	</symbol>
	<symbol viewBox="0 0 24 24" id="ic_assignment">
		<path d="M19 3h-4.18C14.4 1.84 13.3 1 12 1c-1.3 0-2.4.84-2.82 2H5c-1.1 0-2 .9-2 2v14c0 1.1.9 2 2 2h14c1.1 0 2-.9 2-2V5c0-1.1-.9-2-2-2zm-7 0c.55 0 1 .45 1 1s-.45 1-1 1-1-.45-1-1 .45-1 1-1zm2 14H7v-2h7v2zm3-4H7v-2h10v2zm0-4H7V7h10v2z"/>
	</symbol>
	<symbol viewBox="0 0 24 24" id="ic_assignment_on">
		<path d="M19 3h-4.18C14.4 1.84 13.3 1 12 1c-1.3 0-2.4.84-2.82 2H5c-1.1 0-2 .9-2 2v14c0 1.1.9 2 2 2h14c1.1 0 2-.9 2-2V5c0-1.1-.9-2-2-2zm-7 0c.55 0 1 .45 1 1s-.45 1-1 1-1-.45-1-1 .45-1 1-1zm2 14H7v-2h7v2zm3-4H7v-2h10v2zm0-4H7V7h10v2z"/>
	</symbol>
	<symbol viewBox="0 0 24 24" id="ic_lock_open">
		<path d="M12 17c1.1 0 2-.9 2-2s-.9-2-2-2-2 .9-2 2 .9 2 2 2zm6-9h-1V6c0-2.76-2.24-5-5-5S7 3.24 7 6h1.9c0-1.71 1.39-3.1 3.1-3.1 1.71 0 3.1 1.39 3.1 3.1v2H6c-1.1 0-2 .9-2 2v10c0 1.1.9 2 2 2h12c1.1 0 2-.9 2-2V10c0-1.1-.9-2-2-2zm0 12H6V10h12v10z"></path>
	</symbol>
	<symbol viewBox="0 0 24 24" id="ic_lock_off">
		<path d="M12 17c1.1 0 2-.9 2-2s-.9-2-2-2-2 .9-2 2 .9 2 2 2zm6-9h-1V6c0-2.76-2.24-5-5-5S7 3.24 7 6h1.9c0-1.71 1.39-3.1 3.1-3.1 1.71 0 3.1 1.39 3.1 3.1v2H6c-1.1 0-2 .9-2 2v10c0 1.1.9 2 2 2h12c1.1 0 2-.9 2-2V10c0-1.1-.9-2-2-2zm0 12H6V10h12v10z"></path>
	</symbol>
	<symbol viewBox="0 0 24 24" id="ic_lock_outline" >
		<path d="M12 17c1.1 0 2-.9 2-2s-.9-2-2-2-2 .9-2 2 .9 2 2 2zm6-9h-1V6c0-2.76-2.24-5-5-5S7 3.24 7 6v2H6c-1.1 0-2 .9-2 2v10c0 1.1.9 2 2 2h12c1.1 0 2-.9 2-2V10c0-1.1-.9-2-2-2zM8.9 6c0-1.71 1.39-3.1 3.1-3.1s3.1 1.39 3.1 3.1v2H8.9V6zM18 20H6V10h12v10z"/>
	</symbol>
	<symbol viewBox="0 0 24 24" id="ic_backup">
		<path d="M19.35 10.04A7.49 7.49 0 0 0 12 4C9.11 4 6.6 5.64 5.35 8.04A5.994 5.994 0 0 0 0 14c0 3.31 2.69 6 6 6h13c2.76 0 5-2.24 5-5 0-2.64-2.05-4.78-4.65-4.96zM14 13v4h-4v-4H7l5-5 5 5h-3z"/>
	</symbol>
	<symbol viewBox="0 0 24 24" id="ic_cloud_upload">
		<path d="M19.35 10.04A7.49 7.49 0 0 0 12 4C9.11 4 6.6 5.64 5.35 8.04A5.994 5.994 0 0 0 0 14c0 3.31 2.69 6 6 6h13c2.76 0 5-2.24 5-5 0-2.64-2.05-4.78-4.65-4.96zM14 13v4h-4v-4H7l5-5 5 5h-3z"/>
	</symbol>
	<symbol viewBox="0 0 24 24" id="ic_cloud_on">
		<path d="M19.35 10.04A7.49 7.49 0 0 0 12 4C9.11 4 6.6 5.64 5.35 8.04A5.994 5.994 0 0 0 0 14c0 3.31 2.69 6 6 6h13c2.76 0 5-2.24 5-5 0-2.64-2.05-4.78-4.65-4.96zM14 13v4h-4v-4H7l5-5 5 5h-3z"/>
	</symbol>
	<symbol viewBox="0 0 24 24" id="ic_cloud_off">
		<path d="M19.35 10.04A7.49 7.49 0 0 0 12 4c-1.48 0-2.85.43-4.01 1.17l1.46 1.46a5.497 5.497 0 0 1 8.05 4.87v.5H19c1.66 0 3 1.34 3 3 0 1.13-.64 2.11-1.56 2.62l1.45 1.45C23.16 18.16 24 16.68 24 15c0-2.64-2.05-4.78-4.65-4.96zM3 5.27l2.75 2.74C2.56 8.15 0 10.77 0 14c0 3.31 2.69 6 6 6h11.73l2 2L21 20.73 4.27 4 3 5.27zM7.73 10l8 8H6c-2.21 0-4-1.79-4-4s1.79-4 4-4h1.73z"/>
	</symbol>
	<symbol viewBox="0 0 24 24" id="ic_vertical_align_bottom">
		<path d="M16 13h-3V3h-2v10H8l4 4 4-4zM4 19v2h16v-2H4z"/>
	</symbol>
	<symbol viewBox="0 0 24 24" id="ic_vertical_align_center">
		<path d="M8 19h3v4h2v-4h3l-4-4-4 4zm8-14h-3V1h-2v4H8l4 4 4-4zM4 11v2h16v-2H4z"/>
	</symbol>
	<symbol viewBox="0 0 24 24" id="ic_vertical_align_top">
		<path d="M8 11h3v10h2V11h3l-4-4-4 4zM4 3v2h16V3H4z"/>
	</symbol>
	<symbol viewBox="0 0 24 24" id="ic_format_line_spacing">
		<path d="M6 7h2.5L5 3.5 1.5 7H4v10H1.5L5 20.5 8.5 17H6V7zm4-2v2h12V5H10zm0 14h12v-2H10v2zm0-6h12v-2H10v2z"/>
	</symbol>
	<symbol viewBox="0 0 24 24" id="ic_clear">
		<path d="M19 6.41L17.59 5 12 10.59 6.41 5 5 6.41 10.59 12 5 17.59 6.41 19 12 13.41 17.59 19 19 17.59 13.41 12z"/>
	</symbol>
	<symbol viewBox="0 0 24 24" id="ic_format_paint">
		<path d="M18 4V3c0-.55-.45-1-1-1H5c-.55 0-1 .45-1 1v4c0 .55.45 1 1 1h12c.55 0 1-.45 1-1V6h1v4H9v11c0 .55.45 1 1 1h2c.55 0 1-.45 1-1v-9h8V4h-3z"/>
	</symbol>
	<symbol viewBox="0 0 24 24" id="ic_autorenew">
		<path d="M12 6v3l4-4-4-4v3c-4.42 0-8 3.58-8 8 0 1.57.46 3.03 1.24 4.26L6.7 14.8A5.87 5.87 0 0 1 6 12c0-3.31 2.69-6 6-6zm6.76 1.74L17.3 9.2c.44.84.7 1.79.7 2.8 0 3.31-2.69 6-6 6v-3l-4 4 4 4v-3c4.42 0 8-3.58 8-8 0-1.57-.46-3.03-1.24-4.26z"/>
	</symbol>
	<symbol viewBox="0 0 24 24" id="ic_build">
		<path d="M22.7 19l-9.1-9.1c.9-2.3.4-5-1.5-6.9-2-2-5-2.4-7.4-1.3L9 6 6 9 1.6 4.7C.4 7.1.9 10.1 2.9 12.1c1.9 1.9 4.6 2.4 6.9 1.5l9.1 9.1c.4.4 1 .4 1.4 0l2.3-2.3c.5-.4.5-1.1.1-1.4z"/>
	</symbol>
	<symbol viewBox="0 0 24 24" id="ic_youtube_searched_for">
		<path d="M17.01 14h-.8l-.27-.27a6.45 6.45 0 0 0 1.57-4.23c0-3.59-2.91-6.5-6.5-6.5s-6.5 3-6.5 6.5H2l3.84 4 4.16-4H6.51a4.5 4.5 0 0 1 9 0 4.507 4.507 0 0 1-6.32 4.12L7.71 15.1a6.474 6.474 0 0 0 7.52-.67l.27.27v.79l5.01 4.99L22 19l-4.99-5z"/>
	</symbol>
	<symbol viewBox="0 0 24 24" id="ic_content_cut">
		<path d="M9.64 7.64c.23-.5.36-1.05.36-1.64 0-2.21-1.79-4-4-4S2 3.79 2 6s1.79 4 4 4c.59 0 1.14-.13 1.64-.36L10 12l-2.36 2.36C7.14 14.13 6.59 14 6 14c-2.21 0-4 1.79-4 4s1.79 4 4 4 4-1.79 4-4c0-.59-.13-1.14-.36-1.64L12 14l7 7h3v-1L9.64 7.64zM6 8a2 2 0 1 1 0-4 2 2 0 0 1 0 4zm0 12a2 2 0 1 1 0-4 2 2 0 0 1 0 4zm6-7.5c-.28 0-.5-.22-.5-.5s.22-.5.5-.5.5.22.5.5-.22.5-.5.5zM19 3l-6 6 2 2 7-7V3z"/>
	</symbol>
	<symbol viewBox="0 0 24 24" id="ic_mouse">
		<path d="M13 1.07V9h7c0-4.08-3.05-7.44-7-7.93zM4 15c0 4.42 3.58 8 8 8s8-3.58 8-8v-4H4v4zm7-13.93C7.05 1.56 4 4.92 4 9h7V1.07z"/>
	</symbol>
	<symbol viewBox="0 0 24 24" id="ic_lock">
		<path d="M18 8h-1V6c0-2.76-2.24-5-5-5S7 3.24 7 6v2H6c-1.1 0-2 .9-2 2v10c0 1.1.9 2 2 2h12c1.1 0 2-.9 2-2V10c0-1.1-.9-2-2-2zm-6 9c-1.1 0-2-.9-2-2s.9-2 2-2 2 .9 2 2-.9 2-2 2zm3.1-9H8.9V6c0-1.71 1.39-3.1 3.1-3.1 1.71 0 3.1 1.39 3.1 3.1v2z"/>
	</symbol>
	<symbol viewBox="0 0 24 24" id="ic_lock_on">
		<path d="M18 8h-1V6c0-2.76-2.24-5-5-5S7 3.24 7 6v2H6c-1.1 0-2 .9-2 2v10c0 1.1.9 2 2 2h12c1.1 0 2-.9 2-2V10c0-1.1-.9-2-2-2zm-6 9c-1.1 0-2-.9-2-2s.9-2 2-2 2 .9 2 2-.9 2-2 2zm3.1-9H8.9V6c0-1.71 1.39-3.1 3.1-3.1 1.71 0 3.1 1.39 3.1 3.1v2z"/>
	</symbol>
	<symbol viewBox="0 0 24 24" id="ic_assignment_late">
		<path d="M19 3h-4.18C14.4 1.84 13.3 1 12 1c-1.3 0-2.4.84-2.82 2H5c-1.1 0-2 .9-2 2v14c0 1.1.9 2 2 2h14c1.1 0 2-.9 2-2V5c0-1.1-.9-2-2-2zm-6 15h-2v-2h2v2zm0-4h-2V8h2v6zm-1-9c-.55 0-1-.45-1-1s.45-1 1-1 1 .45 1 1-.45 1-1 1z"/>
	</symbol>
	<symbol viewBox="0 0 24 24" id="ic_assignment_off">
		<path d="M19 3h-4.18C14.4 1.84 13.3 1 12 1c-1.3 0-2.4.84-2.82 2H5c-1.1 0-2 .9-2 2v14c0 1.1.9 2 2 2h14c1.1 0 2-.9 2-2V5c0-1.1-.9-2-2-2zm-6 15h-2v-2h2v2zm0-4h-2V8h2v6zm-1-9c-.55 0-1-.45-1-1s.45-1 1-1 1 .45 1 1-.45 1-1 1z"/>
	</symbol>
	<symbol viewBox="0 0 24 24" id="ic_remove_shopping_cart">
		<path d="M22.73 22.73L2.77 2.77 2 2l-.73-.73L0 2.54l4.39 4.39 2.21 4.66-1.35 2.45c-.16.28-.25.61-.25.96 0 1.1.9 2 2 2h7.46l1.38 1.38A1.997 1.997 0 0 0 17 22c.67 0 1.26-.33 1.62-.84L21.46 24l1.27-1.27zM7.42 15c-.14 0-.25-.11-.25-.25l.03-.12.9-1.63h2.36l2 2H7.42zm8.13-2c.75 0 1.41-.41 1.75-1.03l3.58-6.49A1.003 1.003 0 0 0 20 4H6.54l9.01 9zM7 18c-1.1 0-1.99.9-1.99 2S5.9 22 7 22s2-.9 2-2-.9-2-2-2z"/>
	</symbol>
	<symbol viewBox="0 0 24 24" id="ic_delete">
		<path d="M6 19c0 1.1.9 2 2 2h8c1.1 0 2-.9 2-2V7H6v12zM19 4h-3.5l-1-1h-5l-1 1H5v2h14V4z"/>
	</symbol>
	<symbol viewBox="0 0 24 24" id="ic_note_add">
		<path d="M14 2H6c-1.1 0-1.99.9-1.99 2L4 20c0 1.1.89 2 1.99 2H18c1.1 0 2-.9 2-2V8l-6-6zm2 14h-3v3h-2v-3H8v-2h3v-3h2v3h3v2zm-3-7V3.5L18.5 9H13z"/>
	</symbol>
	<symbol viewBox="0 0 24 24" id="ic_cloud_download">
		<path d="M19.35 10.04A7.49 7.49 0 0 0 12 4C9.11 4 6.6 5.64 5.35 8.04A5.994 5.994 0 0 0 0 14c0 3.31 2.69 6 6 6h13c2.76 0 5-2.24 5-5 0-2.64-2.05-4.78-4.65-4.96zM17 13l-5 5-5-5h3V9h4v4h3z"/>
	</symbol>	
	<symbol viewBox="0 0 24 24" id="ic_assignment_returned">
		<path d="M19 3h-4.18C14.4 1.84 13.3 1 12 1c-1.3 0-2.4.84-2.82 2H5c-1.1 0-2 .9-2 2v14c0 1.1.9 2 2 2h14c1.1 0 2-.9 2-2V5c0-1.1-.9-2-2-2zm-7 0c.55 0 1 .45 1 1s-.45 1-1 1-1-.45-1-1 .45-1 1-1zm0 15l-5-5h3V9h4v4h3l-5 5z"/>
	</symbol>	
	<symbol viewBox="0 0 24 24" id="ic_turned_in">
		<path d="M17 3H7c-1.1 0-1.99.9-1.99 2L5 21l7-3 7 3V5c0-1.1-.9-2-2-2z"/>
	</symbol>
	<symbol viewBox="0 0 24 24" id="ic_bookmark">
		<path d="M17 3H7c-1.1 0-1.99.9-1.99 2L5 21l7-3 7 3V5c0-1.1-.9-2-2-2z"/>
	</symbol>
	<symbol viewBox="0 0 24 24" id="ic_bookmark_border">
		<path d="M17 3H7c-1.1 0-1.99.9-1.99 2L5 21l7-3 7 3V5c0-1.1-.9-2-2-2zm0 15l-5-2.18L7 18V5h10v13z"/>
	</symbol>	
	<symbol viewBox="0 0 24 24" id="ic_bookmark_on">
		<path d="M17 3H7c-1.1 0-1.99.9-1.99 2L5 21l7-3 7 3V5c0-1.1-.9-2-2-2z"/>
	</symbol>
	<symbol viewBox="0 0 24 24" id="ic_bookmark_off">
		<path d="M17 3H7c-1.1 0-1.99.9-1.99 2L5 21l7-3 7 3V5c0-1.1-.9-2-2-2zm0 15l-5-2.18L7 18V5h10v13z"/>
	</symbol>	
	<symbol viewBox="0 0 24 24" id="ic_file_upload">
		<path d="M9 16h6v-6h4l-7-7-7 7h4zm-4 2h14v2H5z"/>
	</symbol>	
    <symbol viewBox="0 0 24 24" id="ic_forward">
        <path d="M12 8V4l8 8-8 8v-4H4V8z"/>
    </symbol>	
    <symbol viewBox="0 0 24 24" id="ic_block">
        <path d="M12 2C6.48 2 2 6.48 2 12s4.48 10 10 10 10-4.48 10-10S17.52 2 12 2zM4 12c0-4.42 3.58-8 8-8 1.85 0 3.55.63 4.9 1.69L5.69 16.9A7.902 7.902 0 0 1 4 12zm8 8c-1.85 0-3.55-.63-4.9-1.69L18.31 7.1A7.902 7.902 0 0 1 20 12c0 4.42-3.58 8-8 8z"/>
    </symbol>	
<symbol viewBox="0 0 24 24" id="ic_split">
    <path d="M6.99 11L3 15l3.99 4v-3H14v-2H6.99v-3zM21 9l-3.99-4v3H10v2h7.01v3L21 9z"/>
</symbol>	
<symbol viewBox="0 0 24 24" id="ic_join">
    <path d="M9.01 14H2v2h7.01v3L13 15l-3.99-4v3zm5.98-1v-3H22V8h-7.01V5L11 9l3.99 4z"/>
</symbol>	
<symbol viewBox="0 0 24 24" id="ic_star">
    <path d="M12 17.27L18.18 21l-1.64-7.03L22 9.24l-7.19-.61L12 2 9.19 8.63 2 9.24l5.46 4.73L5.82 21z"/>
</symbol>
<symbol viewBox="0 0 24 24" id="ic_star_border">
    <path d="M22 9.24l-7.19-.62L12 2 9.19 8.63 2 9.24l5.46 4.73L5.82 21 12 17.27 18.18 21l-1.63-7.03L22 9.24zM12 15.4l-3.76 2.27 1-4.28-3.32-2.88 4.38-.38L12 6.1l1.71 4.04 4.38.38-3.32 2.88 1 4.28L12 15.4z"/>
</symbol>
<symbol viewBox="0 0 24 24" id="ic_star_half">
    <path d="M22 9.24l-7.19-.62L12 2 9.19 8.63 2 9.24l5.46 4.73L5.82 21 12 17.27 18.18 21l-1.63-7.03L22 9.24zM12 15.4V6.1l1.71 4.04 4.38.38-3.32 2.88 1 4.28L12 15.4z"/>
</symbol>
<symbol viewBox="0 0 24 24" id="ic_input">
    <path d="M21 3.01H3c-1.1 0-2 .9-2 2V9h2V4.99h18v14.03H3V15H1v4.01c0 1.1.9 1.98 2 1.98h18c1.1 0 2-.88 2-1.98v-14a2 2 0 0 0-2-2zM11 16l4-4-4-4v3H1v2h10v3z"/>
</symbol>
    <symbol viewBox="0 0 24 24" id="ic_question_answer">
        <path d="M21 6h-2v9H6v2c0 .55.45 1 1 1h11l4 4V7c0-.55-.45-1-1-1zm-4 6V3c0-.55-.45-1-1-1H3c-.55 0-1 .45-1 1v14l4-4h10c.55 0 1-.45 1-1z"/>
    </symbol>
    <symbol viewBox="0 0 24 24" id="ic_shopping_cart">
        <path d="M7 18c-1.1 0-1.99.9-1.99 2S5.9 22 7 22s2-.9 2-2-.9-2-2-2zM1 2v2h2l3.6 7.59-1.35 2.45c-.16.28-.25.61-.25.96 0 1.1.9 2 2 2h12v-2H7.42c-.14 0-.25-.11-.25-.25l.03-.12.9-1.63h7.45c.75 0 1.41-.41 1.75-1.03l3.58-6.49A1.003 1.003 0 0 0 20 4H5.21l-.94-2H1zm16 16c-1.1 0-1.99.9-1.99 2s.89 2 1.99 2 2-.9 2-2-.9-2-2-2z"/>
    </symbol>
    <symbol viewBox="0 0 24 24" id="ic_find_in_page">
        <path d="M20 19.59V8l-6-6H6c-1.1 0-1.99.9-1.99 2L4 20c0 1.1.89 2 1.99 2H18c.45 0 .85-.15 1.19-.4l-4.43-4.43c-.8.52-1.74.83-2.76.83-2.76 0-5-2.24-5-5s2.24-5 5-5 5 2.24 5 5c0 1.02-.31 1.96-.83 2.75L20 19.59zM9 13c0 1.66 1.34 3 3 3s3-1.34 3-3-1.34-3-3-3-3 1.34-3 3z"/>
    </symbol>
    <symbol viewBox="0 0 24 24" id="ic_scholar">
        <path d="M5 13.18v4L12 21l7-3.82v-4L12 17l-7-3.82zM12 3L1 9l11 6 9-4.91V17h2V9L12 3z"/>
    </symbol>
    <symbol viewBox="0 0 24 24" id="ic_reader_mode">
        <path d="M21 5c-1.11-.35-2.33-.5-3.5-.5-1.95 0-4.05.4-5.5 1.5-1.45-1.1-3.55-1.5-5.5-1.5S2.45 4.9 1 6v14.65c0 .25.25.5.5.5.1 0 .15-.05.25-.05C3.1 20.45 5.05 20 6.5 20c1.95 0 4.05.4 5.5 1.5 1.35-.85 3.8-1.5 5.5-1.5 1.65 0 3.35.3 4.75 1.05.1.05.15.05.25.05.25 0 .5-.25.5-.5V6c-.6-.45-1.25-.75-2-1zm0 13.5c-1.1-.35-2.3-.5-3.5-.5-1.7 0-4.15.65-5.5 1.5V8c1.35-.85 3.8-1.5 5.5-1.5 1.2 0 2.4.15 3.5.5v11.5z"/>
    </symbol>
	<symbol viewBox="0 0 24 24" id="new_moon">
		<path d="M9 2c-1.05 0-2.05.16-3 .46 4.06 1.27 7 5.06 7 9.54 0 4.48-2.94 8.27-7 9.54.95.3 1.95.46 3 .46 5.52 0 10-4.48 10-10S14.52 2 9 2z"/>
	</symbol>
	<symbol viewBox="0 0 24 24" id="full_moon">
		<circle cx="12" cy="12" r="10"/>
	</symbol>
	<symbol viewBox="0 0 24 24" id="ic_link"><path d="M3.9 12c0-1.71 1.39-3.1 3.1-3.1h4V7H7c-2.76 0-5 2.24-5 5s2.24 5 5 5h4v-1.9H7c-1.71 0-3.1-1.39-3.1-3.1zM8 13h8v-2H8v2zm9-6h-4v1.9h4c1.71 0 3.1 1.39 3.1 3.1s-1.39 3.1-3.1 3.1h-4V17h4c2.76 0 5-2.24 5-5s-2.24-5-5-5z"/></symbol>
	<symbol viewBox="0 0 24 24" id="ic_attachment">
		<path d="M2 12.5C2 9.46 4.46 7 7.5 7H18c2.21 0 4 1.79 4 4s-1.79 4-4 4H9.5a2.5 2.5 0 0 1 0-5H17v2H9.41c-.55 0-.55 1 0 1H18c1.1 0 2-.9 2-2s-.9-2-2-2H7.5C5.57 9 4 10.57 4 12.5S5.57 16 7.5 16H17v2H7.5C4.46 18 2 15.54 2 12.5z"/>
	</symbol>
	<symbol viewBox="0 0 30 30" id="ic_add_folder">
		<g transform="translate(-5 -5)">
		<path d="M24.287,10.254H15.27L13.016,8H6.254a2.244,2.244,0,0,0-2.243,2.254L4,23.779a2.253,2.253,0,0,0,2.254,2.254H24.287a2.253,2.253,0,0,0,2.254-2.254V12.508A2.253,2.253,0,0,0,24.287,10.254ZM23.16,19.27H19.779v3.381H17.525V19.27H14.143V17.016h3.381V13.635h2.254v3.381H23.16Z" transform="translate(5 2.89)"/>
		</g>
	</symbol>
	<symbol viewBox="0 0 30 30" id="ic_add_person">
		<g transform="translate(-5 -5)">
		<path class="b" d="M16,16a4,4,0,1,0-4-4A4,4,0,0,0,16,16ZM7,14V11H5v3H2v2H5v3H7V16h3V14Zm9,4c-2.665,0-8,1.335-8,4v2H24V22C24,19.335,18.665,18,16,18Z" transform="translate(7 4)"/>
		</g>
	</symbol>
	<symbol viewBox="0 0 30 30" id="ic_folder_move">
		<g transform="translate(-5 -5)">
		<path class="b" d="M15.533,19.789V16.405H11.022V11.894h4.511V8.511l5.639,5.639M22.3,6.256H13.278L11.022,4H4.256A2.248,2.248,0,0,0,2,6.256V19.789a2.256,2.256,0,0,0,2.256,2.256H22.3a2.256,2.256,0,0,0,2.256-2.256V8.511A2.255,2.255,0,0,0,22.3,6.256Z" transform="translate(7 6.956)"/>
		</g>
	</symbol>
	<symbol viewBox="0 0 30 30" id="ic_rename">
		<g transform="translate(-5 -5)">
		<path class="b" d="M6,20.253V24H9.75L20.815,12.938l-3.75-3.75Zm17.7-10.2a1,1,0,0,0,0-1.415L21.37,6.3a1,1,0,0,0-1.415,0l-1.83,1.83,3.75,3.75,1.83-1.83Z" transform="translate(5 4.995)"/>
		<path class="b" d="M17.619,29h11.21V26.591H20.057Z"/>
		</g>
	</symbol>
	<symbol viewBox="0 0 30 30" id="ic_delete">
		<path class="a" d="M11.25,26a2.5,2.5,0,0,0,2.5,2.5h10a2.5,2.5,0,0,0,2.5-2.5V11h-15ZM27.5,7.25H23.125L21.875,6h-6.25l-1.25,1.25H10v2.5H27.5Z" transform="translate(-3.75 -2.25)"/>
	</symbol>
	<symbol viewBox="0 0 30 30" id="ic_two_person">
		<path class="b" d="M20.75,17.5A3.75,3.75,0,1,0,17,13.75,3.742,3.742,0,0,0,20.75,17.5Zm-10,0A3.75,3.75,0,1,0,7,13.75,3.742,3.742,0,0,0,10.75,17.5Zm0,2.5C7.831,20,2,21.462,2,24.375V27.5H19.5V24.375C19.5,21.462,13.669,20,10.75,20Zm10,0c-.362,0-.769.025-1.206.069A5.241,5.241,0,0,1,22,24.375V27.5h7.5V24.375C29.5,21.462,23.669,20,20.75,20Z" transform="translate(-0.75 -3.75)"/>
	</symbol>
	<symbol viewBox="0 0 20 20" id="ic_archive">
		<path  class="a" d="M3,3H23V7.444H3V3M4.111,8.556H21.889V23H4.111V8.556m6.111,3.333a.556.556,0,0,0-.556.556v1.667h6.667V12.444a.556.556,0,0,0-.556-.556Z" transform="translate(-3 -3)"/>
	</symbol>
	<symbol viewBox="0 0 30 30" id="ic_add_circle">
		<path class="b" d="M16.5,4A12.5,12.5,0,1,0,29,16.5,12.5,12.5,0,0,0,16.5,4Zm6.25,13.75h-5v5h-2.5v-5h-5v-2.5h5v-5h2.5v5h5Z" transform="translate(-1.5 -1.5)"/>
	</symbol>
</svg>
